<svg width="374" height="632" viewBox="0 0 374 632" fill="none" xmlns="http://www.w3.org/2000/svg">
<path d="M88.1818 512.727C76.1818 512.727 65.8788 508.485 57.2727 500C48.7879 491.394 44.5455 481.091 44.5455 469.091C44.5455 457.212 48.7879 447.03 57.2727 438.545C65.8788 430.061 76.1818 425.818 88.1818 425.818C99.8182 425.818 110 430.061 118.727 438.545C127.455 447.03 131.818 457.212 131.818 469.091C131.818 477.091 129.758 484.424 125.636 491.091C121.636 497.636 116.364 502.909 109.818 506.909C103.273 510.788 96.0606 512.727 88.1818 512.727ZM88.1818 317.091C76.1818 317.091 65.8788 312.848 57.2727 304.364C48.7879 295.879 44.5455 285.576 44.5455 273.455C44.5455 261.576 48.7879 251.455 57.2727 243.091C65.8788 234.606 76.1818 230.364 88.1818 230.364C99.8182 230.364 110 234.606 118.727 243.091C127.455 251.455 131.818 261.576 131.818 273.455C131.818 281.576 129.758 288.97 125.636 295.636C121.636 302.182 116.364 307.394 109.818 311.273C103.273 315.152 96.0606 317.091 88.1818 317.091ZM180.318 360.364V323.818C201.288 323.818 215.833 319.636 223.955 311.273C232.076 302.909 236.136 289.394 236.136 270.727V230.545C236.136 208.121 239.227 190.182 245.409 176.727C251.712 163.151 260.439 152.909 271.591 146C282.864 139.091 296.197 134.485 311.591 132.182C326.985 129.879 343.833 128.727 362.136 128.727V186.545C347.833 186.545 336.924 188.424 329.409 192.182C322.015 195.818 316.985 201.515 314.318 209.273C311.652 216.909 310.318 226.606 310.318 238.364V291.455C310.318 300.667 308.621 309.455 305.227 317.818C301.833 326.061 295.53 333.394 286.318 339.818C277.106 346.121 263.955 351.152 246.864 354.909C229.773 358.545 207.591 360.364 180.318 360.364ZM362.136 588.909C343.833 588.909 326.985 587.758 311.591 585.455C296.197 583.152 282.864 578.545 271.591 571.636C260.439 564.727 251.712 554.485 245.409 540.909C239.227 527.455 236.136 509.515 236.136 487.091V446.727C236.136 428.061 232.076 414.545 223.955 406.182C215.833 397.818 201.288 393.636 180.318 393.636V357.091C207.591 357.091 229.773 358.97 246.864 362.727C263.955 366.364 277.106 371.394 286.318 377.818C295.53 384.121 301.833 391.455 305.227 399.818C308.621 408.061 310.318 416.848 310.318 426.182V479.273C310.318 490.909 311.652 500.545 314.318 508.182C316.985 515.939 322.015 521.636 329.409 525.273C336.924 529.03 347.833 530.909 362.136 530.909V588.909ZM180.318 393.636V323.818H245.591V393.636H180.318Z" fill="#1E1E1E"/>
<path d="M82.1818 506.727C70.1818 506.727 59.8788 502.485 51.2727 494C42.7879 485.394 38.5455 475.091 38.5455 463.091C38.5455 451.212 42.7879 441.03 51.2727 432.545C59.8788 424.061 70.1818 419.818 82.1818 419.818C93.8182 419.818 104 424.061 112.727 432.545C121.455 441.03 125.818 451.212 125.818 463.091C125.818 471.091 123.758 478.424 119.636 485.091C115.636 491.636 110.364 496.909 103.818 500.909C97.2727 504.788 90.0606 506.727 82.1818 506.727ZM82.1818 311.091C70.1818 311.091 59.8788 306.848 51.2727 298.364C42.7879 289.879 38.5455 279.576 38.5455 267.455C38.5455 255.576 42.7879 245.455 51.2727 237.091C59.8788 228.606 70.1818 224.364 82.1818 224.364C93.8182 224.364 104 228.606 112.727 237.091C121.455 245.455 125.818 255.576 125.818 267.455C125.818 275.576 123.758 282.97 119.636 289.636C115.636 296.182 110.364 301.394 103.818 305.273C97.2727 309.152 90.0606 311.091 82.1818 311.091ZM174.318 354.364V317.818C195.288 317.818 209.833 313.636 217.955 305.273C226.076 296.909 230.136 283.394 230.136 264.727V224.545C230.136 202.121 233.227 184.182 239.409 170.727C245.712 157.151 254.439 146.909 265.591 140C276.864 133.091 290.197 128.485 305.591 126.182C320.985 123.879 337.833 122.727 356.136 122.727V180.545C341.833 180.545 330.924 182.424 323.409 186.182C316.015 189.818 310.985 195.515 308.318 203.273C305.652 210.909 304.318 220.606 304.318 232.364V285.455C304.318 294.667 302.621 303.455 299.227 311.818C295.833 320.061 289.53 327.394 280.318 333.818C271.106 340.121 257.955 345.152 240.864 348.909C223.773 352.545 201.591 354.364 174.318 354.364ZM356.136 582.909C337.833 582.909 320.985 581.758 305.591 579.455C290.197 577.152 276.864 572.545 265.591 565.636C254.439 558.727 245.712 548.485 239.409 534.909C233.227 521.455 230.136 503.515 230.136 481.091V440.727C230.136 422.061 226.076 408.545 217.955 400.182C209.833 391.818 195.288 387.636 174.318 387.636V351.091C201.591 351.091 223.773 352.97 240.864 356.727C257.955 360.364 271.106 365.394 280.318 371.818C289.53 378.121 295.833 385.455 299.227 393.818C302.621 402.061 304.318 410.848 304.318 420.182V473.273C304.318 484.909 305.652 494.545 308.318 502.182C310.985 509.939 316.015 515.636 323.409 519.273C330.924 523.03 341.833 524.909 356.136 524.909V582.909ZM174.318 387.636V317.818H239.591V387.636H174.318Z" fill="white"/>
<path d="M76.1818 500.727C64.1818 500.727 53.8788 496.485 45.2727 488C36.7879 479.394 32.5455 469.091 32.5455 457.091C32.5455 445.212 36.7879 435.03 45.2727 426.545C53.8788 418.061 64.1818 413.818 76.1818 413.818C87.8182 413.818 98 418.061 106.727 426.545C115.455 435.03 119.818 445.212 119.818 457.091C119.818 465.091 117.758 472.424 113.636 479.091C109.636 485.636 104.364 490.909 97.8182 494.909C91.2727 498.788 84.0606 500.727 76.1818 500.727ZM76.1818 305.091C64.1818 305.091 53.8788 300.848 45.2727 292.364C36.7879 283.879 32.5455 273.576 32.5455 261.455C32.5455 249.576 36.7879 239.455 45.2727 231.091C53.8788 222.606 64.1818 218.364 76.1818 218.364C87.8182 218.364 98 222.606 106.727 231.091C115.455 239.455 119.818 249.576 119.818 261.455C119.818 269.576 117.758 276.97 113.636 283.636C109.636 290.182 104.364 295.394 97.8182 299.273C91.2727 303.152 84.0606 305.091 76.1818 305.091ZM168.318 348.364V311.818C189.288 311.818 203.833 307.636 211.955 299.273C220.076 290.909 224.136 277.394 224.136 258.727V218.545C224.136 196.121 227.227 178.182 233.409 164.727C239.712 151.151 248.439 140.909 259.591 134C270.864 127.091 284.197 122.485 299.591 120.182C314.985 117.879 331.833 116.727 350.136 116.727V174.545C335.833 174.545 324.924 176.424 317.409 180.182C310.015 183.818 304.985 189.515 302.318 197.273C299.652 204.909 298.318 214.606 298.318 226.364V279.455C298.318 288.667 296.621 297.455 293.227 305.818C289.833 314.061 283.53 321.394 274.318 327.818C265.106 334.121 251.955 339.152 234.864 342.909C217.773 346.545 195.591 348.364 168.318 348.364ZM350.136 576.909C331.833 576.909 314.985 575.758 299.591 573.455C284.197 571.152 270.864 566.545 259.591 559.636C248.439 552.727 239.712 542.485 233.409 528.909C227.227 515.455 224.136 497.515 224.136 475.091V434.727C224.136 416.061 220.076 402.545 211.955 394.182C203.833 385.818 189.288 381.636 168.318 381.636V345.091C195.591 345.091 217.773 346.97 234.864 350.727C251.955 354.364 265.106 359.394 274.318 365.818C283.53 372.121 289.833 379.455 293.227 387.818C296.621 396.061 298.318 404.848 298.318 414.182V467.273C298.318 478.909 299.652 488.545 302.318 496.182C304.985 503.939 310.015 509.636 317.409 513.273C324.924 517.03 335.833 518.909 350.136 518.909V576.909ZM168.318 381.636V311.818H233.591V381.636H168.318Z" fill="url(#paint0_linear_1_6)"/>
<defs>
<linearGradient id="paint0_linear_1_6" x1="181" y1="0" x2="181" y2="620" gradientUnits="userSpaceOnUse">
<stop offset="0.144417" stop-color="#EB9C78"/>
<stop offset="1" stop-color="#6E432F"/>
</linearGradient>
</defs>
</svg>
